PathFileType	4	(X/Y/Z)	8_coords_data.trc
DataRate	CameraRate	NumFrames	NumMarkers	Units	OrigDataRate	OrigDataStartFrame	OrigNumFrames
30.0	30.0	5	21	m	30.0	34	55
Frame#	Time	THUMB_TIP	THUMB_IP	THUMB_MCP	THUMB_CMC	INDEX_TIP	INDEX_DIP	INDEX_PIP	INDEX_MCP	MIDDLE_TIP	MIDDLE_DIP	MIDDLE_PIP	MIDDLE_MCP	RING_TIP	RING_DIP	RING_PIP	RING_MCP	PINKY_TIP	PINKY_DIP	PINKY_PIP	PINKY_MCP	WRIST
X1	Y1	Z1	X2	Y2	Z2	X3	Y3	Z3	X4	Y4	Z4	X5	Y5	Z5	X6	Y6	Z6	X7	Y7	Z7	X8	Y8	Z8	X9	Y9	Z9	X10	Y10	Z10	X11	Y11	Z11	X12	Y12	Z12	X13	Y13	Z13	X14	Y14	Z14	X15	Y15	Z15	X16	Y16	Z16	X17	Y17	Z17	X18	Y18	Z18	X19	Y19	Z19	X20	Y20	Z20	X21	Y21	Z21
33	1.1	0.011856200218200684	-0.09366020202636718	1.04543994140625	0.0024495398998260498	-0.06935759735107422	1.0501600341796875	-0.01028279972076416	-0.04445790100097656	1.0556199951171874	-0.020957399368286132	-0.014336700439453126	1.0621800537109376	0.014185099601745606	-0.05697420120239258	0.9416160278320312	0.00113510000705719	-0.051008098602294924	0.95710498046875	-0.010156299591064453	-0.04379550170898437	0.9747160034179687	-0.013990300178527832	-0.026345199584960937	1.0081699829101562	0.01633110046386719	-0.001333009958267212	0.921625	0.0025195000171661366	-0.003560379981994629	0.94135302734375	-0.012763500213623047	-0.005293399810791016	0.964843017578125	-0.01935930061340332	-0.00591487979888916	1.00277001953125	0.025010000228881835	0.030105100631713868	0.93860302734375	0.01049020004272461	0.026032699584960937	0.95643701171875	-0.00562378978729248	0.021466400146484373	0.97627099609375	-0.015182100296020507	0.013015199661254882	1.0069099731445312	0.03800429916381836	0.06000540161132813	0.9956749877929687	0.022945699691772462	0.050153301239013674	1.0030700073242187	0.009005979537963867	0.04142449951171875	1.008780029296875	-0.009618200302124024	0.02726799964904785	1.0176400146484375	-0.04910200119018555	0.011778499603271484	1.0711700439453125
34	1.1333333333333333	0.008357970237731934	-0.09492220306396484	1.0436800537109374	0.00013512800633907302	-0.07029669952392578	1.0491400146484375	-0.011419400215148926	-0.04509830093383789	1.055469970703125	-0.02107979965209961	-0.014820899963378906	1.062489990234375	0.013288900375366211	-0.05553929901123047	0.9413469848632813	3.7742799613620003e-06	-0.05005580139160156	0.95681298828125	-0.011384300231933594	-0.043277801513671874	0.97452099609375	-0.01423110008239746	-0.026750699996948242	1.0085599975585937	0.016870399475097657	-0.00172816002368927	0.92206298828125	0.003004029989242553	-0.00387362003326416	0.9418679809570313	-0.012379599571228026	-0.005594389915466309	0.9651630249023437	-0.01924799919128418	-0.0062650198936462405	1.0030399780273438	0.025052000045776367	0.029472900390625	0.9384240112304687	0.010868900299072266	0.025470800399780273	0.9566849975585937	-0.00501432991027832	0.021009700775146484	0.97664501953125	-0.014789500236511231	0.012688300132751466	1.007280029296875	0.03806079864501953	0.059943199157714844	0.9954920043945312	0.023159900665283204	0.05000040054321289	1.0031099853515626	0.009369600296020507	0.04117219924926758	1.00897998046875	-0.009163209915161133	0.02697520065307617	1.0179400024414063	-0.048837398529052736	0.011748100280761719	1.0713299560546874
35	1.1666666666666667	0.00544773006439209	-0.09575579833984375	1.04225	-0.001765720009803772	-0.07109639739990234	1.0482099609375	-0.012355199813842773	-0.04579610061645508	1.0553199462890626	-0.021293899536132813	-0.015361499786376954	1.062739990234375	0.012664600372314453	-0.05526689910888672	0.9412139892578125	-0.000634006977081298	-0.049983898162841794	0.9567310180664063	-0.012032899856567383	-0.043382900238037106	0.974530029296875	-0.014744000434875488	-0.027358299255371095	1.0086599731445312	0.01679789924621582	-0.002360650062561035	0.9221890258789063	0.003003070116043091	-0.004453139781951904	0.9421069946289062	-0.012420999526977538	-0.0060964999198913575	0.9654019775390625	-0.019589799880981446	-0.006745299816131592	1.00322998046875	0.02461870002746582	0.028780500411987306	0.938094970703125	0.010725299835205078	0.024770099639892577	0.9566400146484375	-0.004887519836425781	0.020400999069213867	0.9768359985351562	-0.014887100219726562	0.01223169994354248	1.0076500244140625	0.037803001403808593	0.05969649887084961	0.9951680297851563	0.02298240089416504	0.04962969970703125	1.0029600219726562	0.009350879669189453	0.04074700164794922	1.008969970703125	-0.009072190284729003	0.026505699157714845	1.0181099853515625	-0.04889509963989258	0.01145930004119873	1.0715
36	1.2	0.0032874400615692137	-0.09645110321044922	1.0404300537109374	-0.0031110401153564447	-0.07159100341796874	1.047	-0.013222999572753906	-0.04640629959106445	1.0548599853515626	-0.021521299362182618	-0.015807499885559084	1.0626500244140624	0.011960200309753418	-0.05394670104980469	0.9403109741210938	-0.001281960010528564	-0.048959598541259766	0.956125	-0.012580300331115723	-0.04284450149536133	0.9741929931640625	-0.014846500396728515	-0.0277367000579834	1.008760009765625	0.01711630058288574	-0.002536750078201294	0.9222630004882812	0.003364830017089843	-0.004721320152282714	0.9421749877929687	-0.012094599723815918	-0.006406620025634766	0.96539501953125	-0.019486000061035156	-0.007043139934539795	1.0031099853515626	0.023887500762939454	0.028493600845336912	0.9374030151367188	0.010517499923706054	0.024356100082397462	0.9562949829101562	-0.004721759796142578	0.01998550033569336	0.9766900024414062	-0.014820599555969238	0.01192770004272461	1.0073800048828125	0.03687269973754883	0.06004560089111328	0.994093017578125	0.022366500854492186	0.04981430053710938	1.00222998046875	0.008966640472412109	0.04078910064697266	1.0084400024414062	-0.009198140144348145	0.02636400032043457	1.018	-0.04911349868774414	0.011294899940490722	1.0716600341796876
37	1.2333333333333334	0.001600510001182556	-0.09677040100097656	1.03925	-0.0041511797904968265	-0.07185880279541015	1.04618994140625	-0.013564800262451172	-0.0467765007019043	1.054469970703125	-0.021536600112915038	-0.01606410026550293	1.062469970703125	0.010328800201416015	-0.05143069839477539	0.93897900390625	-0.0026132900714874257	-0.04710810089111328	0.9551530151367188	-0.013659299850463867	-0.04168920135498047	0.9736729736328125	-0.01492039966583252	-0.027991300582885743	1.0088900146484374	0.01712540054321289	-0.0029205000400543213	0.921968017578125	0.003522589921951294	-0.005139570236206054	0.942073974609375	-0.0118100004196167	-0.006807590007781982	0.9654359741210937	-0.019134599685668944	-0.007290060043334961	1.0029099731445312	0.023079999923706053	0.027814599990844728	0.9364110107421875	0.010200900077819824	0.023729499816894532	0.9557379760742187	-0.004620560169219971	0.019441499710083007	0.9764110107421875	-0.01471660041809082	0.011676600456237793	1.0071400146484375	0.03607799911499023	0.06044869995117187	0.992708984375	0.021798700332641602	0.050021598815917966	1.0012100219726563	0.008631489753723144	0.04087200164794922	1.0077000122070312	-0.009232159614562988	0.026253999710083006	1.0175999755859375	-0.04897359848022461	0.011087800025939941	1.0711700439453125
